<svg width="450" height="162" viewBox="0 0 450 162" fill="none" xmlns="http://www.w3.org/2000/svg">
<path d="M214.773 30.7126C234.49 45.1295 231.653 96.2178 225.312 116.044C223.944 120.322 220.936 122.999 222.049 127.562C222.657 130.054 224.776 132.736 225.433 135.32C228.878 148.869 219.403 158.755 202.964 156.955C199.839 156.612 192.46 154.206 190.169 154.348C187.659 154.502 181.072 157.369 176.684 157.801C158.209 159.625 142.27 147.894 135.668 133.86C130.875 123.673 130.963 125.393 123.628 117.11C115.62 108.07 114.461 88.8742 120.815 78.9945C121.715 77.5941 127.838 71.8816 127.917 71.4012C128.209 69.5926 122.177 67.0947 120.56 65.1305C116.001 59.5859 116.084 46.2856 123.684 42.6766C128.414 40.4299 133.834 43.1121 134.309 42.88C134.784 42.648 137.822 35.7739 138.977 34.166C145.94 24.4679 150.995 25.4097 160.509 20.3293C169.889 15.3212 173.215 9.89266 186.917 11.2235C198.44 12.3428 198.086 20.3606 204.519 25.1367C207.026 26.9985 211.562 28.3649 214.773 30.7126ZM212.631 68.031C212.478 67.8195 208.64 66.5855 207.404 65.8061C195.496 58.2906 199.228 48.5174 192.585 39.1427C187.632 32.154 176.948 26.5262 167.567 30.9952C163.327 33.0153 154.808 44.4279 153.728 48.6675C151.683 56.699 160.161 60.0923 157.757 68.7586C155.054 78.499 143.68 78.959 139.578 85.1833C135.486 91.3912 136.377 103.717 138.953 110.307C143.145 121.028 157.611 120.019 163.37 129.597C163.981 130.614 164.773 134.208 165.022 134.332C165.32 134.482 169.466 132.173 171.334 131.943C176.769 131.276 181.238 132.825 185.814 135.009C187.026 135.588 192.049 138.958 192.625 138.911C194.616 138.752 207.635 128.778 207.551 126.307C207.346 120.359 202.926 115.232 210.434 109.625C213.158 107.589 216.262 108.01 216.516 104.421C216.855 99.6562 213.27 90.1518 212.679 84.5049C212.404 81.8774 213.137 68.7299 212.628 68.0297L212.631 68.031Z" fill="#393939"/>
<path d="M304.999 20.7207C309.709 24.9822 319.917 38.5951 320.7 44.3061C321.316 48.7914 319.455 54.8451 319.547 59.4683C319.818 73.133 329.088 78.223 326.578 93.8397C323.808 111.071 317.28 128.288 326.438 145.067C328.327 148.527 335.333 155.871 333.824 159.537C333.069 161.369 327.585 158.23 325.903 157.811C323.998 157.334 321.038 156.779 319.096 156.776C312.821 156.768 296.944 163.892 295.61 154.981C293.824 143.043 306.163 136.959 305.1 126.7C304.702 122.855 301.967 118.719 301.674 114.884C301.34 110.494 302.549 106.339 301.521 101.636C299.042 90.3017 285.018 84.7107 272.488 86.4388C256.074 88.7019 263.486 97.5565 264.836 107.286C266.003 115.704 264.187 122.533 264.873 130.186C265.484 137.002 271.745 147.223 264.255 152.846C252.599 161.598 228.625 156.028 234.657 140.687C239.547 128.252 247.465 120.787 249.479 106.109C251.996 87.7533 238.092 73.4388 245.925 54.4834C247.537 50.5809 251.326 46.6252 252.459 43.135C254.908 35.6058 252.012 32.424 257.903 24.5768C268.58 10.3592 291.364 8.38133 305.001 20.7207H304.999ZM289.627 30.023C281.319 22.932 273.534 24.2683 267.499 32.4936C261.34 40.8855 265.804 43.4025 264.164 51.4873C262.808 58.1784 255.895 62.3593 262.012 69.8352C267.964 77.1092 279.08 75.3443 287.998 77.6852C293.793 79.2072 299.451 81.9767 304.539 84.7217C302.968 76.3189 305.391 67.5585 304.873 59.1857C304.131 47.1862 299.439 38.3958 289.629 30.0216L289.627 30.023Z" fill="#393939"/>
<path d="M43.7486 83.407C45.7492 80.6921 52.4452 68.1739 55.3446 67.232C56.0819 66.9932 56.8927 66.8417 57.3389 67.5747C58.5111 69.502 52.8338 84.5276 51.4793 87.1416C48.6902 92.5209 44.8968 94.0907 44.7145 101.022C44.553 107.175 48.4935 109.771 49.1412 114.703C49.5666 117.945 48.2185 125.006 49.8161 127.777C50.6237 129.177 59.944 130.085 62.3045 130.768C74.9353 134.417 73.0849 147.491 85.7957 148.391C105.294 149.772 97.9003 122.803 123.197 126.296C133.093 127.662 118.86 133.134 117.344 134.078C104.686 141.952 123.666 148.066 113.16 156.714C99.4275 168.02 75.8788 155.93 62.5108 151.066C43.2864 144.072 43.7294 154.368 29.5218 155.214C19.9472 155.785 16.8735 151.134 9.26431 149.829C7.28766 149.491 0.510107 149.928 0.214248 149.636C-1.15949 148.284 4.47781 145.685 5.63085 144.102C8.84212 139.689 7.12134 138.208 13.1281 134.396C19.9344 130.077 24.8648 129.484 29.0884 122.084C30.9915 118.749 35.3734 101.704 35.0887 98.3275C34.8633 95.6481 31.5624 93.1529 30.79 90.5103C30.0176 87.8677 30.6525 85.7425 30.307 83.2787C29.1364 74.9469 27.7754 72.1924 32.821 64.1172C37.8666 56.042 44.585 57.3141 43.7646 45.0485C43.264 37.567 36.3937 38.1458 30.9835 34.6542C29.613 33.7697 25.1431 30.577 28.6055 29.6898C33.9981 31.3632 39.4307 30.2003 43.4255 34.5409C39.21 26.9994 36.4369 23.2293 39.4275 14.6095C40.2799 12.1512 42.498 9.67103 43.0225 7.30417C43.3968 5.61433 42.0502 -0.250971 44.481 0.458816C46.8287 1.14267 53.6942 17.8786 53.9917 20.7464C54.4747 25.3942 52.6947 30.5347 53.7566 34.8698C54.8185 39.205 59.9568 42.7034 60.3918 47.2229C61.273 56.3573 40.5805 67.2757 41.548 77.2332C41.748 79.2889 43.4927 81.3322 43.7534 83.407H43.7486Z" fill="#393939"/>
<path d="M429.786 53.6358C426.237 51.1382 420.849 64.5881 417.595 78.7389C405.636 130.496 407.299 156.482 395.422 156.374C376.298 156.2 389.722 63.9937 371.426 48.9835C363.81 42.7348 365.584 81.5437 365.427 92.7868C365.31 103.965 363.722 111.757 363.722 118.671C363.722 131.826 371.956 141.781 371.956 151.819C371.956 154.662 370.897 156.697 368.78 157.925C366.702 159.153 363.173 159.766 358.193 159.766C353.724 159.766 350.469 159.12 348.43 157.828C346.431 156.536 345.431 154.468 345.431 151.625C345.431 149.299 346.529 147.263 348.724 145.519C350.959 143.774 352.194 142.256 352.43 140.963C352.979 137.668 350.758 118.183 351.346 100.866C351.731 90.2039 364.25 41.4141 352.665 29.7928C352.038 29.1467 351.077 28.4359 349.783 27.6605C347.117 26.0451 345.784 23.8482 345.784 21.0698C345.784 18.4205 346.705 16.6113 348.548 15.6421C350.43 14.6082 354.331 14.0913 360.252 14.0913C364.722 14.0913 367.604 14.1882 368.897 14.3821C375.285 15.3109 381.954 30.0399 383.064 34.639C386.04 47.3097 385.948 46.5494 389.681 56.1558C399.562 96.6696 397.402 116.926 398.304 116.926C399.206 116.926 401.48 109.69 405.126 95.2158C408.812 80.7419 413.164 61.6481 418.183 37.9343C418.497 36.4482 418.908 34.3805 419.418 31.7313C420.869 24.3005 422.222 19.4867 423.476 17.2898C424.143 16.1267 425.299 15.319 426.946 14.8667C428.593 14.3498 431.377 14.0913 435.298 14.0913C441.297 14.0913 443.035 23.8348 441.297 34.2513C440.905 36.8359 440.709 43.2974 440.709 53.6358C440.709 75.0235 440.905 94.3111 441.297 111.499C441.728 128.622 442.14 138.443 442.532 140.963C442.767 142.514 443.806 143.839 445.649 144.937C446.159 145.26 446.57 145.519 446.884 145.713C447.982 146.423 448.766 147.263 449.236 148.233C449.746 149.137 450.001 150.333 450.001 151.819C450.001 154.791 448.864 156.859 446.59 158.022C444.316 159.185 439.826 159.766 433.122 159.766C426.966 159.766 422.77 159.185 420.536 158.022C418.34 156.859 417.242 154.791 417.242 151.819C417.242 149.105 418.516 146.94 421.065 145.325C422.32 144.485 423.202 143.742 423.711 143.096C424.456 142.191 424.966 140.253 425.241 137.28C426.069 128.308 433.335 56.1335 429.786 53.6358Z" fill="#393939"/>
</svg>
